<svg width="886" height="886" viewBox="0 0 886 886" fill="none" xmlns="http://www.w3.org/2000/svg">
<path d="M877.037 359.481C888.005 416.479 887.639 475.08 875.96 531.937C864.28 588.794 841.516 642.794 808.968 690.854C776.419 738.913 734.723 780.091 686.261 812.037C637.798 843.982 583.518 866.07 526.519 877.037C469.521 888.005 410.92 887.639 354.063 875.96C297.206 864.28 243.206 841.516 195.146 808.968C147.087 776.419 105.909 734.723 73.9631 686.261C42.0176 637.798 19.9304 583.518 8.96251 526.519C-2.00539 469.521 -1.63918 410.92 10.0402 354.063C21.7196 297.206 44.4835 243.206 77.0322 195.146C109.581 147.087 151.277 105.909 199.739 73.9631C248.202 42.0176 302.482 19.9304 359.481 8.96251C416.479 -2.00539 475.08 -1.63918 531.937 10.0402C588.794 21.7196 642.794 44.4835 690.854 77.0322C738.913 109.581 780.092 151.277 812.037 199.739C843.982 248.202 866.07 302.482 877.037 359.481L877.037 359.481Z" stroke="#7B56BD" stroke-width="2" stroke-linecap="round" stroke-dasharray="6 12 18 24"/>
</svg>
