<svg width="834" height="213" viewBox="0 0 834 213" fill="none" xmlns="http://www.w3.org/2000/svg">
<g clip-path="url(#clip0_9240_112082)">
<path d="M165.855 152.201L166.494 152.594L165.855 152.201ZM685.364 403.818L684.66 403.559L685.364 403.818ZM660.145 152.201L659.506 152.594L660.145 152.201ZM832 179.25H828.663V180.75H832V179.25ZM819.487 179.25H807.808V180.75H819.487V179.25ZM793.626 179.25H786.953V180.75H793.626V179.25ZM777.777 179.25H766.098V180.75H777.777V179.25ZM751.916 179.25H745.242V180.75H751.916V179.25ZM736.066 179.25H724.387V180.75H736.066V179.25ZM710.206 179.25H706.869V180.75H710.206V179.25ZM706.869 179.25C705.366 179.25 703.875 179.18 702.4 179.044L702.262 180.538C703.783 180.678 705.319 180.75 706.869 180.75V179.25ZM690.413 176.396C685.497 174.654 680.859 172.163 676.614 169.061L675.729 170.272C680.085 173.455 684.852 176.017 689.912 177.81L690.413 176.396ZM663.272 155.544C662.4 154.332 661.57 153.085 660.784 151.807L659.506 152.594C660.311 153.902 661.161 155.178 662.053 156.42L663.272 155.544ZM660.784 151.807C660.092 150.684 659.393 149.566 658.687 148.453L657.42 149.256C658.123 150.364 658.818 151.476 659.506 152.594L660.784 151.807ZM652.691 139.381C650.074 135.577 647.368 131.839 644.578 128.169L643.384 129.077C646.16 132.728 648.852 136.447 651.455 140.231L652.691 139.381ZM634.026 115.091C632.311 113.088 630.57 111.108 628.803 109.152L627.69 110.157C629.448 112.103 631.18 114.073 632.886 116.067L634.026 115.091ZM621.365 101.22C618.147 97.9137 614.851 94.684 611.48 91.5336L610.456 92.6295C613.809 95.7637 617.088 98.9769 620.29 102.266L621.365 101.22ZM598.878 80.4171C596.852 78.7311 594.803 77.072 592.731 75.4405L591.803 76.619C593.864 78.2421 595.903 79.8926 597.918 81.5701L598.878 80.4171ZM584.064 68.8734C580.338 66.158 576.545 63.529 572.688 60.9893L571.863 62.2421C575.7 64.7687 579.474 67.3842 583.18 70.0856L584.064 68.8734ZM558.392 52.1574C556.112 50.8382 553.813 49.5491 551.494 48.2906L550.778 49.6089C553.085 50.8609 555.373 52.1433 557.641 53.4557L558.392 52.1574ZM541.84 43.283C537.713 41.2396 533.53 39.2913 529.295 37.441L528.695 38.8155C532.908 40.6562 537.069 42.5944 541.174 44.6272L541.84 43.283ZM513.706 31.1635C511.235 30.2514 508.749 29.3718 506.248 28.5254L505.767 29.9462C508.255 30.7883 510.729 31.6633 513.186 32.5707L513.706 31.1635ZM495.885 25.2351C491.476 23.926 487.022 22.7187 482.528 21.6158L482.171 23.0726C486.641 24.1697 491.072 25.3708 495.458 26.6731L495.885 25.2351ZM466.099 18.0876C463.512 17.6101 460.913 17.1669 458.302 16.7584L458.07 18.2404C460.667 18.6468 463.253 19.0877 465.827 19.5627L466.099 18.0876ZM447.53 15.2791C442.967 14.7392 438.372 14.305 433.748 13.9789L433.642 15.4752C438.243 15.7996 442.815 16.2316 447.354 16.7687L447.53 15.2791ZM416.963 13.2765C415.644 13.2588 414.323 13.25 413 13.25V14.75C414.316 14.75 415.631 14.7588 416.943 14.7763L416.963 13.2765ZM413 13.25C411.677 13.25 410.356 13.2588 409.037 13.2765L409.057 14.7763C410.369 14.7588 411.684 14.75 413 14.75V13.25ZM398.168 13.6218C393.541 13.8543 388.942 14.195 384.373 14.6415L384.519 16.1344C389.064 15.6902 393.64 15.3512 398.244 15.1199L398.168 13.6218ZM367.698 16.7584C365.087 17.1669 362.488 17.6101 359.901 18.0876L360.173 19.5627C362.747 19.0877 365.333 18.6468 367.93 18.2404L367.698 16.7584ZM349.247 20.2615C344.73 21.2719 340.254 22.3874 335.819 23.6053L336.216 25.0517C340.628 23.8402 345.081 22.7305 349.575 21.7253L349.247 20.2615ZM319.752 28.5254C317.251 29.3718 314.765 30.2514 312.294 31.1635L312.814 32.5707C315.271 31.6632 317.745 30.7883 320.233 29.9462L319.752 28.5254ZM302.167 35.121C297.893 36.8847 293.67 38.7474 289.501 40.7062L290.139 42.0638C294.287 40.1152 298.488 38.2622 302.74 36.5076L302.167 35.121ZM274.506 48.2906C272.188 49.549 269.888 50.8381 267.608 52.1573L268.359 53.4557C270.627 52.1433 272.915 50.8609 275.222 49.6089L274.506 48.2906ZM258.298 57.7785C254.39 60.239 250.545 62.7899 246.766 65.4283L247.624 66.6583C251.384 64.0334 255.21 61.4956 259.097 59.0479L258.298 57.7785ZM233.269 75.4405C231.197 77.072 229.148 78.731 227.122 80.4171L228.082 81.57C230.097 79.8926 232.136 78.2421 234.197 76.619L233.269 75.4405ZM218.895 87.5275C215.46 90.6092 212.1 93.7714 208.816 97.0112L209.869 98.079C213.136 94.8559 216.48 91.7099 219.897 88.644L218.895 87.5275ZM197.197 109.152C195.43 111.108 193.689 113.088 191.975 115.091L193.114 116.067C194.82 114.073 196.552 112.103 198.31 110.157L197.197 109.152ZM185.061 123.484C182.196 127.097 179.415 130.78 176.721 134.529L177.939 135.404C180.619 131.674 183.386 128.011 186.236 124.416L185.061 123.484ZM167.313 148.453C166.607 149.566 165.908 150.684 165.216 151.807L166.494 152.594C167.182 151.476 167.877 150.364 168.58 149.256L167.313 148.453ZM165.216 151.807C164.43 153.085 163.6 154.332 162.728 155.544L163.947 156.42C164.839 155.178 165.689 153.902 166.494 152.594L165.216 151.807ZM154.576 164.784C150.704 168.366 146.393 171.399 141.756 173.749L142.434 175.087C147.2 172.671 151.625 169.557 155.595 165.886L154.576 164.784ZM123.6 179.044C122.125 179.18 120.634 179.25 119.131 179.25V180.75C120.681 180.75 122.217 180.678 123.738 180.538L123.6 179.044ZM119.131 179.25H115.768V180.75H119.131V179.25ZM106.518 179.25H94.7457V180.75H106.518V179.25ZM80.4509 179.25H73.7239V180.75H80.4509V179.25ZM64.4743 179.25H52.702V180.75H64.4743V179.25ZM38.4072 179.25H31.6802V180.75H38.4072V179.25ZM22.4306 179.25H10.6584V180.75H22.4306V179.25ZM-3.6365 179.25H-7V180.75H-3.6365V179.25ZM-7 179.25C-7.9665 179.25 -8.75 180.034 -8.75 181H-7.25C-7.25 180.862 -7.13807 180.75 -7 180.75V179.25ZM-8.75 181V184.66H-7.25V181H-8.75ZM-8.75 194.725V207.535H-7.25V194.725H-8.75ZM-8.75 223.09V230.41H-7.25V223.09H-8.75ZM-8.75 240.475V253.285H-7.25V240.475H-8.75ZM-8.75 268.84V276.16H-7.25V268.84H-8.75ZM-8.75 286.225V299.035H-7.25V286.225H-8.75ZM-8.75 314.59V321.91H-7.25V314.59H-8.75ZM-8.75 331.975V344.785H-7.25V331.975H-8.75ZM-8.75 360.34V364H-7.25V360.34H-8.75ZM-8.75 364C-8.75 364.966 -7.96655 365.75 -7.00002 365.75V364.25C-7.13807 364.25 -7.25 364.138 -7.25 364H-8.75ZM-7.00002 365.75H-3.16011V364.25H-7.00002V365.75ZM7.39963 365.75H20.8393V364.25H7.39963V365.75ZM37.1589 365.75H44.8387V364.25H37.1589V365.75ZM55.3985 365.75H68.8382V364.25H55.3985V365.75ZM85.1578 365.75H88.9977V364.25H85.1578V365.75ZM88.9977 365.75C90.8244 365.75 92.6287 365.852 94.4069 366.049L94.5727 364.559C92.7398 364.355 90.8801 364.25 88.9977 364.25V365.75ZM108.745 369.9C114.525 372.421 119.827 376.003 124.462 380.394L125.493 379.305C120.74 374.802 115.294 371.12 109.344 368.525L108.745 369.9ZM137.844 399.057C138.608 400.693 139.306 402.368 139.932 404.076L141.34 403.56C140.699 401.811 139.986 400.097 139.203 398.422L137.844 399.057ZM139.932 404.076C140.398 405.347 140.872 406.613 141.355 407.875L142.756 407.339C142.276 406.084 141.804 404.824 141.34 403.56L139.932 404.076ZM145.538 418.205C147.4 422.561 149.366 426.862 151.431 431.105L152.78 430.449C150.725 426.227 148.77 421.949 146.917 417.615L145.538 418.205ZM159.426 446.358C160.751 448.714 162.109 451.05 163.498 453.364L164.784 452.593C163.402 450.29 162.052 447.966 160.733 445.622L159.426 446.358ZM169.413 462.809C172.001 466.771 174.684 470.667 177.457 474.492L178.672 473.611C175.913 469.806 173.244 465.931 170.669 461.989L169.413 462.809ZM187.973 488.129C189.686 490.22 191.427 492.286 193.196 494.327L194.33 493.345C192.57 491.314 190.837 489.259 189.134 487.179L187.973 488.129ZM200.654 502.608C203.885 506.061 207.198 509.435 210.592 512.727L211.637 511.65C208.26 508.375 204.963 505.018 201.749 501.583L200.654 502.608ZM223.302 524.347C225.348 526.111 227.419 527.846 229.514 529.552L230.462 528.389C228.377 526.692 226.317 524.965 224.281 523.211L223.302 524.347ZM238.288 536.424C242.062 539.266 245.908 542.018 249.822 544.677L250.665 543.436C246.771 540.791 242.945 538.053 239.19 535.226L238.288 536.424ZM264.348 553.929C266.668 555.311 269.008 556.662 271.368 557.981L272.1 556.672C269.752 555.359 267.424 554.015 265.116 552.64L264.348 553.929ZM281.199 563.23C285.405 565.372 289.669 567.416 293.99 569.356L294.605 567.988C290.306 566.057 286.064 564.025 281.88 561.893L281.199 563.23ZM309.902 575.941C312.424 576.898 314.964 577.821 317.519 578.709L318.011 577.292C315.469 576.408 312.943 575.491 310.434 574.539L309.902 575.941ZM328.114 582.163C332.624 583.537 337.18 584.805 341.78 585.964L342.146 584.509C337.57 583.357 333.038 582.095 328.551 580.728L328.114 582.163ZM358.598 589.669C361.248 590.171 363.912 590.636 366.588 591.066L366.825 589.585C364.163 589.157 361.514 588.694 358.877 588.195L358.598 589.669ZM377.622 592.619C382.293 593.186 386.999 593.642 391.735 593.984L391.843 592.488C387.131 592.147 382.45 591.694 377.803 591.13L377.622 592.619ZM408.936 594.722C410.288 594.741 411.643 594.75 413 594.75V593.25C411.65 593.25 410.302 593.241 408.956 593.222L408.936 594.722ZM413 594.75C414.357 594.75 415.712 594.741 417.064 594.722L417.044 593.222C415.698 593.241 414.35 593.25 413 593.25V594.75ZM428.201 594.359C432.946 594.115 437.662 593.757 442.344 593.287L442.195 591.795C437.536 592.262 432.845 592.618 428.124 592.861L428.201 594.359ZM459.413 591.066C462.088 590.636 464.752 590.171 467.402 589.669L467.123 588.195C464.486 588.694 461.837 589.157 459.175 589.585L459.413 591.066ZM478.31 587.386C482.932 586.325 487.512 585.154 492.047 583.876L491.64 582.432C487.128 583.703 482.573 584.868 477.975 585.924L478.31 587.386ZM508.481 578.709C511.036 577.821 513.576 576.898 516.098 575.941L515.566 574.539C513.057 575.49 510.531 576.408 507.989 577.292L508.481 578.709ZM526.44 571.788C530.801 569.938 535.108 567.985 539.358 565.931L538.705 564.581C534.477 566.624 530.193 568.567 525.854 570.407L526.44 571.788ZM554.632 557.981C556.992 556.662 559.332 555.311 561.652 553.929L560.884 552.64C558.576 554.015 556.248 555.359 553.9 556.672L554.632 557.981ZM571.113 548.04C575.083 545.463 578.985 542.792 582.818 540.03L581.941 538.813C578.128 541.561 574.245 544.218 570.296 546.782L571.113 548.04ZM596.486 529.552C598.581 527.846 600.652 526.111 602.698 524.347L601.719 523.211C599.684 524.965 597.623 526.692 595.538 528.389L596.486 529.552ZM611.001 516.913C614.462 513.692 617.846 510.388 621.147 507.004L620.073 505.956C616.789 509.323 613.423 512.611 609.979 515.815L611.001 516.913ZM632.804 494.327C634.573 492.286 636.314 490.22 638.027 488.129L636.866 487.179C635.163 489.258 633.43 491.314 631.67 493.345L632.804 494.327ZM644.923 479.375C647.776 475.609 650.538 471.771 653.208 467.865L651.97 467.018C649.314 470.905 646.565 474.723 643.727 478.47L644.923 479.375ZM662.502 453.364C663.891 451.05 665.249 448.714 666.574 446.358L665.267 445.622C663.948 447.966 662.598 450.29 661.216 452.593L662.502 453.364ZM671.851 436.542C674.006 432.342 676.062 428.082 678.015 423.767L676.648 423.148C674.705 427.441 672.66 431.679 670.516 435.857L671.851 436.542ZM684.645 407.875C685.128 406.613 685.602 405.346 686.068 404.076L684.66 403.559C684.196 404.824 683.724 406.084 683.244 407.339L684.645 407.875ZM686.068 404.076C686.694 402.368 687.392 400.693 688.156 399.056L686.797 398.422C686.014 400.097 685.301 401.811 684.66 403.559L686.068 404.076ZM696.025 386.387C700.035 381.389 704.781 377.084 710.081 373.719L709.277 372.453C703.831 375.911 698.963 380.328 694.855 385.449L696.025 386.387ZM731.593 366.049C733.371 365.852 735.176 365.75 737.002 365.75V364.25C735.12 364.25 733.26 364.355 731.427 364.559L731.593 366.049ZM737.002 365.75H740.842V364.25H737.002V365.75ZM751.402 365.75H764.842V364.25H751.402V365.75ZM781.161 365.75H788.841V364.25H781.161V365.75ZM799.401 365.75H812.841V364.25H799.401V365.75ZM829.16 365.75H833V364.25H829.16V365.75ZM833 365.75C833.967 365.75 834.75 364.966 834.75 364H833.25C833.25 364.138 833.138 364.25 833 364.25V365.75ZM834.75 364V360.36H833.25V364H834.75ZM834.75 350.35V337.61H833.25V350.35H834.75ZM834.75 322.14V314.86H833.25V322.14H834.75ZM834.75 304.85V292.11H833.25V304.85H834.75ZM834.75 276.64V269.36H833.25V276.64H834.75ZM834.75 259.35V246.61H833.25V259.35H834.75ZM834.75 231.14V223.86H833.25V231.14H834.75ZM834.75 213.85V201.11H833.25V213.85H834.75ZM834.75 185.64V182H833.25V185.64H834.75ZM834.75 182C834.75 180.481 833.519 179.25 832 179.25V180.75C832.69 180.75 833.25 181.31 833.25 182H834.75Z" fill="#9F83F1"/>
</g>
<defs>
<clipPath id="clip0_9240_112082">
<rect width="842" height="213" fill="white" transform="translate(-8)"/>
</clipPath>
</defs>
</svg>
