<svg width="552" height="552" viewBox="0 0 552 552" fill="none" xmlns="http://www.w3.org/2000/svg">
<g style="mix-blend-mode:multiply">
<path d="M415.232 0C452.882 57.6596 469.549 126.517 462.435 195.012C455.322 263.507 424.86 327.469 376.164 376.161C327.469 424.853 263.504 455.31 195.008 462.419C126.513 469.527 57.6568 452.855 0 415.2C24.3988 452.566 56.8264 484.017 94.9199 507.263C133.013 530.509 175.813 544.964 220.201 549.574C264.588 554.184 309.445 548.833 351.502 533.911C393.56 518.99 431.759 494.873 463.315 463.319C494.872 431.765 518.991 393.568 533.916 351.511C548.841 309.455 554.195 264.599 549.588 220.211C544.982 175.823 530.531 133.022 507.288 94.9269C484.044 56.8316 452.595 24.4016 415.232 0Z" fill="#DBDBDB"/>
</g>
</svg>
