<svg width="32" height="32" viewBox="0 0 32 32" fill="none" xmlns="http://www.w3.org/2000/svg">
<path d="M24.6266 22.4413L25.1466 26.6546C25.28 27.7613 24.0933 28.5346 23.1466 27.9613L17.56 24.6413C16.9466 24.6413 16.3466 24.6013 15.76 24.5213C16.7466 23.3613 17.3333 21.8946 17.3333 20.3079C17.3333 16.5213 14.0533 13.4547 9.99996 13.4547C8.45329 13.4547 7.02663 13.8946 5.83997 14.668C5.79997 14.3346 5.78662 14.0013 5.78662 13.6546C5.78662 7.58796 11.0533 2.66797 17.56 2.66797C24.0666 2.66797 29.3333 7.58796 29.3333 13.6546C29.3333 17.2546 27.48 20.4413 24.6266 22.4413Z" stroke="#1B7BD7" stroke-width="2" stroke-linecap="round" stroke-linejoin="round"/>
<path d="M17.3333 20.3064C17.3333 21.8931 16.7466 23.3598 15.76 24.5198C14.44 26.1198 12.3466 27.1464 9.99996 27.1464L6.51996 29.2131C5.93329 29.5731 5.18662 29.0797 5.26662 28.3997L5.59996 25.7731C3.81329 24.5331 2.66663 22.5464 2.66663 20.3064C2.66663 17.9597 3.91997 15.8931 5.83997 14.6664C7.02663 13.8931 8.45329 13.4531 9.99996 13.4531C14.0533 13.4531 17.3333 16.5197 17.3333 20.3064Z" stroke="#1B7BD7" stroke-width="2" stroke-linecap="round" stroke-linejoin="round"/>
</svg>
