<svg width="32" height="32" viewBox="0 0 32 32" fill="none" xmlns="http://www.w3.org/2000/svg">
<g clip-path="url(#clip0_699_14347)">
<mask id="path-1-inside-1_699_14347" fill="white">
<path d="M13.9824 7.7975C10.9807 8.49738 8.56437 10.8778 7.8265 13.8619C7.08631 16.8556 7.93344 19.9071 10.0927 22.0245C10.8564 22.7736 11.3125 23.9741 11.3125 25.2361L11.3125 25.4375C11.3125 26.2685 11.6751 27.0163 12.25 27.5316L12.25 29.1875C12.25 30.7383 13.5117 32 15.0625 32L16.9375 32C18.4883 32 19.75 30.7383 19.75 29.1875L19.75 27.5316C20.3249 27.0163 20.6875 26.2686 20.6875 25.4375L20.6875 25.2324C20.6875 23.9896 21.1679 22.7662 21.9727 21.9598C23.5621 20.3669 24.4375 18.2503 24.4375 16C24.4375 10.6201 19.4519 6.52263 13.9824 7.7975ZM17.875 29.1875C17.875 29.7044 17.4544 30.125 16.9375 30.125L15.0625 30.125C14.5456 30.125 14.125 29.7044 14.125 29.1875L14.125 28.25L17.875 28.25L17.875 29.1875ZM20.6454 20.6354C19.4806 21.8027 18.8125 23.4782 18.8125 25.2324L18.8125 25.4375C18.8125 25.9544 18.3919 26.375 17.875 26.375L14.125 26.375C13.6081 26.375 13.1875 25.9544 13.1875 25.4375L13.1875 25.2361C13.1875 23.4549 12.5379 21.7964 11.4054 20.6858C9.72481 19.0377 9.06737 16.655 9.64662 14.312C10.2169 12.0053 12.0859 10.1649 14.4081 9.62356C18.7001 8.62275 22.5625 11.8267 22.5625 16C22.5625 17.7503 21.8816 19.3964 20.6454 20.6354ZM8.70794 7.38212L6.05625 4.7305C5.69019 4.36438 5.09656 4.36438 4.73044 4.7305C4.36431 5.09663 4.36431 5.69019 4.73044 6.05631L7.38212 8.70794C7.74819 9.07406 8.34187 9.07406 8.70794 8.70794C9.07406 8.34181 9.07406 7.74825 8.70794 7.38212ZM4.75 15.0625L0.9375 15.0625C0.41975 15.0625 -2.58367e-08 15.4822 -2.67007e-08 16C-2.75648e-08 16.5178 0.41975 16.9375 0.9375 16.9375L4.75 16.9375C5.26775 16.9375 5.6875 16.5178 5.6875 16C5.6875 15.4822 5.26775 15.0625 4.75 15.0625ZM31.0625 15.0625L27.25 15.0625C26.7322 15.0625 26.3125 15.4823 26.3125 16C26.3125 16.5178 26.7322 16.9375 27.25 16.9375L31.0625 16.9375C31.5802 16.9375 32 16.5178 32 16C32 15.4823 31.5802 15.0625 31.0625 15.0625ZM27.2696 4.7305C26.9036 4.36438 26.3099 4.36438 25.9438 4.7305L23.2921 7.38212C22.9259 7.74819 22.9259 8.34181 23.2921 8.70794C23.6581 9.07406 24.2517 9.07406 24.6179 8.70794L27.2696 6.05631C27.6357 5.69025 27.6357 5.09663 27.2696 4.7305ZM16 2.67007e-08C15.4822 2.58367e-08 15.0625 0.41975 15.0625 0.9375L15.0625 4.75C15.0625 5.26775 15.4822 5.6875 16 5.6875C16.5178 5.6875 16.9375 5.26775 16.9375 4.75L16.9375 0.9375C16.9375 0.41975 16.5178 2.75648e-08 16 2.67007e-08Z"/>
</mask>
<path d="M13.9824 7.7975C10.9807 8.49738 8.56437 10.8778 7.8265 13.8619C7.08631 16.8556 7.93344 19.9071 10.0927 22.0245C10.8564 22.7736 11.3125 23.9741 11.3125 25.2361L11.3125 25.4375C11.3125 26.2685 11.6751 27.0163 12.25 27.5316L12.25 29.1875C12.25 30.7383 13.5117 32 15.0625 32L16.9375 32C18.4883 32 19.75 30.7383 19.75 29.1875L19.75 27.5316C20.3249 27.0163 20.6875 26.2686 20.6875 25.4375L20.6875 25.2324C20.6875 23.9896 21.1679 22.7662 21.9727 21.9598C23.5621 20.3669 24.4375 18.2503 24.4375 16C24.4375 10.6201 19.4519 6.52263 13.9824 7.7975ZM17.875 29.1875C17.875 29.7044 17.4544 30.125 16.9375 30.125L15.0625 30.125C14.5456 30.125 14.125 29.7044 14.125 29.1875L14.125 28.25L17.875 28.25L17.875 29.1875ZM20.6454 20.6354C19.4806 21.8027 18.8125 23.4782 18.8125 25.2324L18.8125 25.4375C18.8125 25.9544 18.3919 26.375 17.875 26.375L14.125 26.375C13.6081 26.375 13.1875 25.9544 13.1875 25.4375L13.1875 25.2361C13.1875 23.4549 12.5379 21.7964 11.4054 20.6858C9.72481 19.0377 9.06737 16.655 9.64662 14.312C10.2169 12.0053 12.0859 10.1649 14.4081 9.62356C18.7001 8.62275 22.5625 11.8267 22.5625 16C22.5625 17.7503 21.8816 19.3964 20.6454 20.6354ZM8.70794 7.38212L6.05625 4.7305C5.69019 4.36438 5.09656 4.36438 4.73044 4.7305C4.36431 5.09663 4.36431 5.69019 4.73044 6.05631L7.38212 8.70794C7.74819 9.07406 8.34187 9.07406 8.70794 8.70794C9.07406 8.34181 9.07406 7.74825 8.70794 7.38212ZM4.75 15.0625L0.9375 15.0625C0.41975 15.0625 -2.58367e-08 15.4822 -2.67007e-08 16C-2.75648e-08 16.5178 0.41975 16.9375 0.9375 16.9375L4.75 16.9375C5.26775 16.9375 5.6875 16.5178 5.6875 16C5.6875 15.4822 5.26775 15.0625 4.75 15.0625ZM31.0625 15.0625L27.25 15.0625C26.7322 15.0625 26.3125 15.4823 26.3125 16C26.3125 16.5178 26.7322 16.9375 27.25 16.9375L31.0625 16.9375C31.5802 16.9375 32 16.5178 32 16C32 15.4823 31.5802 15.0625 31.0625 15.0625ZM27.2696 4.7305C26.9036 4.36438 26.3099 4.36438 25.9438 4.7305L23.2921 7.38212C22.9259 7.74819 22.9259 8.34181 23.2921 8.70794C23.6581 9.07406 24.2517 9.07406 24.6179 8.70794L27.2696 6.05631C27.6357 5.69025 27.6357 5.09663 27.2696 4.7305ZM16 2.67007e-08C15.4822 2.58367e-08 15.0625 0.41975 15.0625 0.9375L15.0625 4.75C15.0625 5.26775 15.4822 5.6875 16 5.6875C16.5178 5.6875 16.9375 5.26775 16.9375 4.75L16.9375 0.9375C16.9375 0.41975 16.5178 2.75648e-08 16 2.67007e-08Z" fill="#0A0A0A"/>
<path d="M13.9824 7.7975L13.5284 5.84971L13.5282 5.84974L13.9824 7.7975ZM7.8265 13.8619L5.88497 13.3819L5.88496 13.3819L7.8265 13.8619ZM10.0927 22.0245L11.4931 20.5966L11.493 20.5965L10.0927 22.0245ZM12.25 27.5316L14.25 27.5316L14.25 26.6384L13.5849 26.0422L12.25 27.5316ZM19.75 27.5316L18.4151 26.0422L17.75 26.6384L17.75 27.5316L19.75 27.5316ZM21.9727 21.9598L23.3884 23.3725L23.3885 23.3725L21.9727 21.9598ZM14.125 28.25L14.125 26.25L12.125 26.25L12.125 28.25L14.125 28.25ZM17.875 28.25L19.875 28.25L19.875 26.25L17.875 26.25L17.875 28.25ZM20.6454 20.6354L22.0611 22.0481L22.0611 22.0481L20.6454 20.6354ZM11.4054 20.6858L10.0051 22.1138L10.0051 22.1138L11.4054 20.6858ZM9.64662 14.312L7.70509 13.832L7.70508 13.832L9.64662 14.312ZM14.4081 9.62356L14.8622 11.5713L14.8623 11.5713L14.4081 9.62356ZM8.70794 7.38212L10.1222 5.96791L10.1221 5.96789L8.70794 7.38212ZM6.05625 4.7305L4.64192 6.14459L4.64205 6.14473L6.05625 4.7305ZM4.73044 6.05631L3.31622 7.47053L3.31624 7.47054L4.73044 6.05631ZM7.38212 8.70794L8.79646 7.29384L8.79632 7.29371L7.38212 8.70794ZM8.70794 8.70794L7.29372 7.29372L7.2936 7.29384L8.70794 8.70794ZM27.2696 4.7305L25.8551 6.14447L25.8553 6.14471L27.2696 4.7305ZM25.9438 4.7305L24.5297 3.31617L24.5296 3.31627L25.9438 4.7305ZM23.2921 7.38212L24.7062 8.79646L24.7063 8.79636L23.2921 7.38212ZM23.2921 8.70794L24.7064 7.29384L24.7063 7.29372L23.2921 8.70794ZM24.6179 8.70794L23.2037 7.29371L23.2037 7.29372L24.6179 8.70794ZM27.2696 6.05631L25.8555 4.64198L25.8554 4.64208L27.2696 6.05631ZM13.5282 5.84974C9.79676 6.71978 6.80394 9.66534 5.88497 13.3819L9.76803 14.342C10.3248 12.0903 12.1646 10.275 14.4365 9.74526L13.5282 5.84974ZM5.88496 13.3819C4.97906 17.0458 6.01568 20.8276 8.69237 23.4525L11.493 20.5965C9.8512 18.9865 9.19356 16.6654 9.76803 14.342L5.88496 13.3819ZM8.69227 23.4524C9.00412 23.7582 9.3125 24.4073 9.3125 25.2361L13.3125 25.2361C13.3125 23.541 12.7088 21.7889 11.4931 20.5966L8.69227 23.4524ZM9.3125 25.2361L9.3125 25.4375L13.3125 25.4375L13.3125 25.2361L9.3125 25.2361ZM9.3125 25.4375C9.3125 26.863 9.93677 28.144 10.9151 29.0209L13.5849 26.0422C13.4134 25.8885 13.3125 25.674 13.3125 25.4375L9.3125 25.4375ZM10.25 27.5316L10.25 29.1875L14.25 29.1875L14.25 27.5316L10.25 27.5316ZM10.25 29.1875C10.25 31.8429 12.4071 34 15.0625 34L15.0625 30C14.6163 30 14.25 29.6337 14.25 29.1875L10.25 29.1875ZM15.0625 34L16.9375 34L16.9375 30L15.0625 30L15.0625 34ZM16.9375 34C19.5929 34 21.75 31.8429 21.75 29.1875L17.75 29.1875C17.75 29.6337 17.3837 30 16.9375 30L16.9375 34ZM21.75 29.1875L21.75 27.5316L17.75 27.5316L17.75 29.1875L21.75 29.1875ZM21.0849 29.0209C22.0632 28.144 22.6875 26.8631 22.6875 25.4375L18.6875 25.4375C18.6875 25.674 18.5867 25.8885 18.4151 26.0422L21.0849 29.0209ZM22.6875 25.4375L22.6875 25.2324L18.6875 25.2324L18.6875 25.4375L22.6875 25.4375ZM22.6875 25.2324C22.6875 24.4664 22.9936 23.7681 23.3884 23.3725L20.557 20.5471C19.3423 21.7644 18.6875 23.5129 18.6875 25.2324L22.6875 25.2324ZM23.3885 23.3725C25.352 21.4046 26.4375 18.78 26.4375 16L22.4375 16C22.4375 17.7206 21.7722 19.3292 20.5569 20.5472L23.3885 23.3725ZM26.4375 16C26.4375 9.33964 20.2596 4.28075 13.5284 5.84971L14.4364 9.74529C18.6442 8.7645 22.4375 11.9005 22.4375 16L26.4375 16ZM15.875 29.1875C15.875 28.5999 16.3499 28.125 16.9375 28.125L16.9375 32.125C18.559 32.125 19.875 30.809 19.875 29.1875L15.875 29.1875ZM16.9375 28.125L15.0625 28.125L15.0625 32.125L16.9375 32.125L16.9375 28.125ZM15.0625 28.125C15.6501 28.125 16.125 28.5999 16.125 29.1875L12.125 29.1875C12.125 30.809 13.441 32.125 15.0625 32.125L15.0625 28.125ZM16.125 29.1875L16.125 28.25L12.125 28.25L12.125 29.1875L16.125 29.1875ZM14.125 30.25L17.875 30.25L17.875 26.25L14.125 26.25L14.125 30.25ZM15.875 28.25L15.875 29.1875L19.875 29.1875L19.875 28.25L15.875 28.25ZM19.2296 19.2227C17.6651 20.7906 16.8125 22.9859 16.8125 25.2324L20.8125 25.2324C20.8125 23.9705 21.2961 22.8148 22.0611 22.0481L19.2296 19.2227ZM16.8125 25.2324L16.8125 25.4375L20.8125 25.4375L20.8125 25.2324L16.8125 25.2324ZM16.8125 25.4375C16.8125 24.8499 17.2874 24.375 17.875 24.375L17.875 28.375C19.4965 28.375 20.8125 27.059 20.8125 25.4375L16.8125 25.4375ZM17.875 24.375L14.125 24.375L14.125 28.375L17.875 28.375L17.875 24.375ZM14.125 24.375C14.7126 24.375 15.1875 24.8499 15.1875 25.4375L11.1875 25.4375C11.1875 27.059 12.5035 28.375 14.125 28.375L14.125 24.375ZM15.1875 25.4375L15.1875 25.2361L11.1875 25.2361L11.1875 25.4375L15.1875 25.4375ZM15.1875 25.2361C15.1875 22.99 14.3706 20.7923 12.8058 19.2578L10.0051 22.1138C10.7053 22.8004 11.1875 23.9198 11.1875 25.2361L15.1875 25.2361ZM12.8058 19.2579C11.646 18.1205 11.1734 16.4695 11.5882 14.792L7.70508 13.832C6.96131 16.8405 7.80365 19.9549 10.0051 22.1138L12.8058 19.2579ZM11.5882 14.792C11.9772 13.2185 13.2691 11.9427 14.8622 11.5713L13.954 7.67579C10.9028 8.38714 8.45667 10.7921 7.70509 13.832L11.5882 14.792ZM14.8623 11.5713C17.8907 10.8652 20.5625 13.1053 20.5625 16L24.5625 16C24.5625 10.5482 19.5096 6.38035 13.9539 7.67581L14.8623 11.5713ZM20.5625 16C20.5625 17.2205 20.0918 18.3587 19.2296 19.2227L22.0611 22.0481C23.6715 20.4342 24.5625 18.28 24.5625 16L20.5625 16ZM10.1221 5.96789L7.47045 3.31627L4.64205 6.14473L7.29374 8.79636L10.1221 5.96789ZM7.47058 3.31641C6.32338 2.16901 4.46333 2.16918 3.31622 3.31629L6.14465 6.14471C5.72979 6.55957 5.057 6.55974 4.64192 6.14459L7.47058 3.31641ZM3.31622 3.31629C2.16905 4.46346 2.16905 6.32335 3.31622 7.47053L6.14465 4.6421C6.55957 5.05702 6.55957 5.72979 6.14465 6.14471L3.31622 3.31629ZM3.31624 7.47054L5.96793 10.1222L8.79632 7.29371L6.14463 4.64208L3.31624 7.47054ZM5.96779 10.122C7.11493 11.2694 8.97513 11.2694 10.1223 10.122L7.2936 7.29384C7.70862 6.87876 8.38145 6.87876 8.79646 7.29384L5.96779 10.122ZM10.1222 10.1222C11.2693 8.97498 11.2693 7.11508 10.1222 5.96791L7.29372 8.79634C6.8788 8.38141 6.8788 7.70865 7.29372 7.29372L10.1222 10.1222ZM4.75 13.0625L0.9375 13.0625L0.9375 17.0625L4.75 17.0625L4.75 13.0625ZM0.9375 13.0625C-0.68482 13.0625 -2 14.3777 -2 16L2 16C2 16.5868 1.52432 17.0625 0.9375 17.0625L0.9375 13.0625ZM-2 16C-2 17.6223 -0.68482 18.9375 0.9375 18.9375L0.9375 14.9375C1.52432 14.9375 2 15.4132 2 16L-2 16ZM0.9375 18.9375L4.75 18.9375L4.75 14.9375L0.9375 14.9375L0.9375 18.9375ZM4.75 18.9375C6.37232 18.9375 7.6875 17.6223 7.6875 16L3.6875 16C3.6875 15.4132 4.16318 14.9375 4.75 14.9375L4.75 18.9375ZM7.6875 16C7.6875 14.3777 6.37232 13.0625 4.75 13.0625L4.75 17.0625C4.16318 17.0625 3.6875 16.5868 3.6875 16L7.6875 16ZM31.0625 13.0625L27.25 13.0625L27.25 17.0625L31.0625 17.0625L31.0625 13.0625ZM27.25 13.0625C25.6277 13.0625 24.3125 14.3777 24.3125 16L28.3125 16C28.3125 16.5868 27.8368 17.0625 27.25 17.0625L27.25 13.0625ZM24.3125 16C24.3125 17.6223 25.6277 18.9375 27.25 18.9375L27.25 14.9375C27.8368 14.9375 28.3125 15.4132 28.3125 16L24.3125 16ZM27.25 18.9375L31.0625 18.9375L31.0625 14.9375L27.25 14.9375L27.25 18.9375ZM31.0625 18.9375C32.6848 18.9375 34 17.6223 34 16L30 16C30 15.4132 30.4757 14.9375 31.0625 14.9375L31.0625 18.9375ZM34 16C34 14.3777 32.6848 13.0625 31.0625 13.0625L31.0625 17.0625C30.4757 17.0625 30 16.5868 30 16L34 16ZM28.684 3.31653C27.5367 2.16883 25.6767 2.16935 24.5297 3.31617L27.3578 6.14483C26.9432 6.5594 26.2704 6.55992 25.8551 6.14447L28.684 3.31653ZM24.5296 3.31627L21.8779 5.96789L24.7063 8.79636L27.3579 6.14473L24.5296 3.31627ZM21.878 5.96779C20.7306 7.115 20.7307 8.97504 21.8778 10.1222L24.7063 7.29372C25.1211 7.70858 25.1213 8.38138 24.7062 8.79646L21.878 5.96779ZM21.8777 10.122C23.0249 11.2694 24.885 11.2693 26.0321 10.1222L23.2037 7.29372C23.6185 6.87887 24.2913 6.87869 24.7064 7.29384L21.8777 10.122ZM26.0321 10.1222L28.6838 7.47054L25.8554 4.64208L23.2037 7.29371L26.0321 10.1222ZM28.6837 7.47065C29.8311 6.32344 29.8309 4.46339 28.6838 3.31629L25.8553 6.14471C25.4405 5.72986 25.4403 5.05706 25.8555 4.64198L28.6837 7.47065ZM16 -2C14.3777 -2 13.0625 -0.68482 13.0625 0.9375L17.0625 0.9375C17.0625 1.52432 16.5868 2 16 2L16 -2ZM13.0625 0.9375L13.0625 4.75L17.0625 4.75L17.0625 0.9375L13.0625 0.9375ZM13.0625 4.75C13.0625 6.37232 14.3777 7.6875 16 7.6875L16 3.6875C16.5868 3.6875 17.0625 4.16318 17.0625 4.75L13.0625 4.75ZM16 7.6875C17.6223 7.6875 18.9375 6.37232 18.9375 4.75L14.9375 4.75C14.9375 4.16318 15.4132 3.6875 16 3.6875L16 7.6875ZM18.9375 4.75L18.9375 0.9375L14.9375 0.9375L14.9375 4.75L18.9375 4.75ZM18.9375 0.9375C18.9375 -0.684819 17.6223 -2 16 -2L16 2C15.4132 2 14.9375 1.52432 14.9375 0.9375L18.9375 0.9375Z" fill="#1B7BD7" mask="url(#path-1-inside-1_699_14347)"/>
<mask id="path-3-inside-2_699_14347" fill="white">
<path d="M16.0001 11.3125C15.6147 11.3125 15.2221 11.3587 14.8339 11.4496C13.2174 11.8269 11.8641 13.1576 11.4665 14.7608C11.3419 15.2634 11.6482 15.7718 12.1507 15.8964C12.6533 16.0211 13.1617 15.7146 13.2863 15.2122C13.5151 14.2898 14.3268 13.4934 15.2609 13.2754C15.5098 13.2171 15.7585 13.1875 16.0001 13.1875C16.5178 13.1875 16.9376 12.7678 16.9376 12.25C16.9376 11.7322 16.5178 11.3125 16.0001 11.3125Z"/>
</mask>
<path d="M16.0001 11.3125C15.6147 11.3125 15.2221 11.3587 14.8339 11.4496C13.2174 11.8269 11.8641 13.1576 11.4665 14.7608C11.3419 15.2634 11.6482 15.7718 12.1507 15.8964C12.6533 16.0211 13.1617 15.7146 13.2863 15.2122C13.5151 14.2898 14.3268 13.4934 15.2609 13.2754C15.5098 13.2171 15.7585 13.1875 16.0001 13.1875C16.5178 13.1875 16.9376 12.7678 16.9376 12.25C16.9376 11.7322 16.5178 11.3125 16.0001 11.3125Z" fill="#0A0A0A"/>
<path d="M14.8339 11.4496L15.2885 13.3973L15.2901 13.3969L14.8339 11.4496ZM11.4665 14.7608L9.5253 14.2794L9.5253 14.2794L11.4665 14.7608ZM12.1507 15.8964L11.669 17.8376L11.6694 17.8377L12.1507 15.8964ZM13.2863 15.2122L11.3452 14.7306L11.3451 14.7307L13.2863 15.2122ZM15.2609 13.2754L15.7155 15.223L15.7171 15.2226L15.2609 13.2754ZM16.0001 9.3125C15.4558 9.3125 14.9102 9.37762 14.3778 9.50234L15.2901 13.3969C15.5341 13.3398 15.7736 13.3125 16.0001 13.3125L16.0001 9.3125ZM14.3794 9.50197C12.0359 10.049 10.1048 11.9424 9.5253 14.2794L13.4077 15.2422C13.6233 14.3728 14.3989 13.6049 15.2885 13.3973L14.3794 9.50197ZM9.5253 14.2794C9.13484 15.854 10.0946 17.4469 11.669 17.8376L12.6324 13.9553C13.2018 14.0966 13.5489 14.6728 13.4077 15.2422L9.5253 14.2794ZM11.6694 17.8377C13.2441 18.2281 14.837 17.268 15.2275 15.6937L11.3451 14.7307C11.4864 14.1612 12.0625 13.814 12.632 13.9552L11.6694 17.8377ZM15.2275 15.6937C15.2734 15.5086 15.5047 15.2722 15.7155 15.223L14.8062 11.3277C13.1488 11.7146 11.7568 13.0711 11.3452 14.7306L15.2275 15.6937ZM15.7171 15.2226C15.825 15.1974 15.9207 15.1875 16.0001 15.1875L16.0001 11.1875C15.5963 11.1875 15.1945 11.2368 14.8046 11.3281L15.7171 15.2226ZM16.0001 15.1875C17.6224 15.1875 18.9376 13.8723 18.9376 12.25L14.9376 12.25C14.9376 11.6632 15.4133 11.1875 16.0001 11.1875L16.0001 15.1875ZM18.9376 12.25C18.9376 10.6277 17.6224 9.3125 16.0001 9.3125L16.0001 13.3125C15.4133 13.3125 14.9376 12.8368 14.9376 12.25L18.9376 12.25Z" fill="#1B7BD7" mask="url(#path-3-inside-2_699_14347)"/>
</g>
<defs>
<clipPath id="clip0_699_14347">
<rect width="32" height="32" fill="white"/>
</clipPath>
</defs>
</svg>
