<svg width="32" height="32" viewBox="0 0 32 32" fill="none" xmlns="http://www.w3.org/2000/svg">
<path d="M28.8801 13.9207L27.5734 19.494C26.4534 24.3073 24.2401 26.254 20.0801 25.854C19.4134 25.8007 18.6934 25.6807 17.9201 25.494L15.6801 24.9607C10.1201 23.6407 8.40008 20.894 9.70674 15.3207L11.0134 9.734C11.2801 8.60066 11.6001 7.614 12.0001 6.80066C13.5601 3.57399 16.2134 2.70733 20.6667 3.76066L22.8934 4.28066C28.4801 5.58733 30.1867 8.34733 28.8801 13.9207Z" stroke="#1B7BD7" stroke-width="2" stroke-linecap="round" stroke-linejoin="round"/>
<path d="M20.08 25.8541C19.2533 26.4141 18.2133 26.8808 16.9466 27.2941L14.84 27.9874C9.54663 29.6941 6.75997 28.2674 5.03997 22.9741L3.3333 17.7074C1.62663 12.4141 3.03997 9.61411 8.3333 7.90745L10.44 7.21411C10.9866 7.04078 11.5066 6.89411 12 6.80078C11.6 7.61411 11.28 8.60078 11.0133 9.73412L9.70663 15.3208C8.39997 20.8941 10.12 23.6408 15.68 24.9608L17.92 25.4941C18.6933 25.6808 19.4133 25.8008 20.08 25.8541Z" stroke="#1B7BD7" stroke-width="2" stroke-linecap="round" stroke-linejoin="round"/>
<path d="M16.8533 11.375L23.3199 13.015" stroke="#1B7BD7" stroke-width="2" stroke-linecap="round" stroke-linejoin="round"/>
<path d="M15.5466 16.5352L19.4133 17.5218" stroke="#1B7BD7" stroke-width="2" stroke-linecap="round" stroke-linejoin="round"/>
</svg>
