<svg width="32" height="32" viewBox="0 0 32 32" fill="none" xmlns="http://www.w3.org/2000/svg">
<path d="M29.3333 22.3209L29.3333 6.22757C29.3333 4.62757 28.0266 3.4409 26.44 3.57424L26.36 3.57424C23.56 3.81424 19.3066 5.2409 16.9333 6.73424L16.7066 6.8809C16.32 7.1209 15.68 7.1209 15.2933 6.8809L14.96 6.6809C12.5866 5.2009 8.34663 3.78757 5.54663 3.5609C3.95996 3.42757 2.66663 4.62757 2.66663 6.21424L2.66663 22.3209C2.66663 23.6009 3.70663 24.8009 4.98663 24.9609L5.37329 25.0142C8.26663 25.4009 12.7333 26.8676 15.2933 28.2676L15.3466 28.2942C15.7066 28.4942 16.28 28.4942 16.6266 28.2942C19.1866 26.8809 23.6666 25.4009 26.5733 25.0142L27.0133 24.9609C28.2933 24.8009 29.3333 23.6009 29.3333 22.3209Z" stroke="#1B7BD7" stroke-width="2" stroke-linecap="round" stroke-linejoin="round"/>
<path d="M16 7.32031L16 27.3203" stroke="#1B7BD7" stroke-width="2" stroke-linecap="round" stroke-linejoin="round"/>
<path d="M10.3334 11.3203L7.33337 11.3203" stroke="#1B7BD7" stroke-width="2" stroke-linecap="round" stroke-linejoin="round"/>
<path d="M11.3334 15.3203L7.33337 15.3203" stroke="#1B7BD7" stroke-width="2" stroke-linecap="round" stroke-linejoin="round"/>
</svg>
